<svg width="184" height="24" viewBox="0 0 184 24" fill="none" xmlns="http://www.w3.org/2000/svg">
<path d="M109.91 18.5239C109.659 18.2789 109.462 17.9842 109.331 17.6587C109.2 17.3332 109.138 16.9839 109.15 16.6333C109.137 16.2855 109.198 15.9388 109.329 15.6163C109.46 15.2939 109.658 15.003 109.91 14.7632C110.439 14.301 111.118 14.0464 111.82 14.0464C112.522 14.0464 113.201 14.301 113.73 14.7632C113.982 15.0031 114.181 15.2939 114.312 15.6163C114.443 15.9387 114.505 16.2854 114.492 16.6333C114.504 16.9837 114.442 17.3327 114.312 17.6582C114.182 17.9837 113.985 18.2785 113.735 18.5239C113.211 18.9981 112.531 19.2607 111.825 19.2607C111.119 19.2607 110.438 18.9981 109.915 18.5239H109.91Z" fill="#35393E"/>
<path d="M9.29831 11.3611L3.92226 4.93164H0V19.0827H4.65029V12.6533L10.0263 19.0827H13.9486V4.93164H9.29831V11.3611Z" fill="#35393E"/>
<path d="M21.4064 4.93164H18.5807V8.42618H19.8753L15.2204 19.0759H20.0755L21.0242 16.6097H26.4002L27.3558 19.0827H32.2882L26.1022 4.93164H21.4064ZM22.3369 13.1789L23.702 9.62288L25.067 13.1789H22.3369Z" fill="#35393E"/>
<path d="M41.0334 8.46288C42.2589 8.46288 43.3206 8.9816 44.2185 10.019L47.2603 7.32534C46.5314 6.43372 45.5936 5.73586 44.5302 5.29368C43.3443 4.81024 42.0726 4.57263 40.7922 4.59522C39.3588 4.5717 37.9408 4.89401 36.6584 5.53484C35.4796 6.1248 34.4915 7.03567 33.8077 8.16257C33.1382 9.32847 32.786 10.6494 32.786 11.9938C32.786 13.3382 33.1382 14.6592 33.8077 15.8251C34.4821 16.9532 35.4585 17.8705 36.6265 18.4733C37.8842 19.1128 39.2791 19.4353 40.6898 19.4129C41.7922 19.4022 42.8878 19.2391 43.9455 18.9283C44.9832 18.6499 45.9668 18.1992 46.8553 17.5951V11.6116H42.7124V15.1972C42.1616 15.4261 41.5707 15.5429 40.9742 15.5407C39.9481 15.5407 39.1314 15.2176 38.5171 14.5692C37.9028 13.9208 37.6071 13.0677 37.6071 12.0029C37.6071 10.9382 37.9165 10.0486 38.5376 9.41615C39.1587 8.78367 39.9823 8.46288 41.0334 8.46288Z" fill="#35393E"/>
<path d="M54.1725 4.93164H49.4039V4.93847H48.3573V8.43301H49.4039V19.0827H60.5609V15.3834H54.1725V4.93164Z" fill="#35393E"/>
<path d="M70.1024 4.93164L67.1903 9.82309L64.3009 4.93164H59.2661L64.6035 13.8864V19.0827H69.3744V13.9478L74.7095 4.93164H70.1024Z" fill="#35393E"/>
<path d="M79.5615 4.93016H76.6039V8.42471H78.0236L73.3687 19.0744H78.2261L79.1771 16.6082H84.5531L85.5041 19.0744H90.4365L84.2505 4.92334L79.5615 4.93016ZM80.4898 13.1774L81.8662 9.62141L83.2313 13.1774H80.4898Z" fill="#35393E"/>
<path d="M105.666 8.24013C104.988 7.16634 104.012 6.31333 102.856 5.78531C101.547 5.19001 100.122 4.89612 98.6839 4.92532H91.7085H90.5869V8.41987H91.7085V19.0696H98.6839C100.122 19.0988 101.547 18.8049 102.856 18.2096C104.012 17.6824 104.989 16.8292 105.666 15.7548C106.353 14.6227 106.7 13.3176 106.667 11.994C106.699 10.6728 106.351 9.37019 105.666 8.24013ZM100.936 14.4762C100.33 15.0631 99.5113 15.3566 98.4814 15.3566H96.4794V8.6451H98.4814C99.5052 8.6451 100.323 8.93859 100.936 9.52556C101.549 10.1125 101.856 10.9376 101.858 12.0009C101.858 13.0702 101.551 13.8975 100.936 14.483V14.4762Z" fill="#35393E"/>
<path d="M120.354 19L115.814 5H119.894L123.714 17.12H121.654L125.674 5H129.314L133.114 17.12H131.134L135.074 5H138.854L134.314 19H130.074L126.834 8.7H127.974L124.594 19H120.354ZM138.104 19L144.284 5H148.184L154.384 19H150.264L145.424 6.94H146.984L142.144 19H138.104ZM141.484 16.28L142.504 13.36H149.344L150.364 16.28H141.484ZM160.427 19.28C159.28 19.28 158.174 19.14 157.107 18.86C156.054 18.5667 155.194 18.1933 154.527 17.74L155.827 14.82C156.454 15.22 157.174 15.5533 157.987 15.82C158.814 16.0733 159.634 16.2 160.447 16.2C160.994 16.2 161.434 16.1533 161.767 16.06C162.1 15.9533 162.34 15.82 162.487 15.66C162.647 15.4867 162.727 15.2867 162.727 15.06C162.727 14.74 162.58 14.4867 162.287 14.3C161.994 14.1133 161.614 13.96 161.147 13.84C160.68 13.72 160.16 13.6 159.587 13.48C159.027 13.36 158.46 13.2067 157.887 13.02C157.327 12.8333 156.814 12.5933 156.347 12.3C155.88 11.9933 155.5 11.6 155.207 11.12C154.914 10.6267 154.767 10.0067 154.767 9.26C154.767 8.42 154.994 7.66 155.447 6.98C155.914 6.3 156.607 5.75333 157.527 5.34C158.447 4.92667 159.594 4.72 160.967 4.72C161.887 4.72 162.787 4.82667 163.667 5.04C164.56 5.24 165.354 5.54 166.047 5.94L164.827 8.88C164.16 8.52 163.5 8.25333 162.847 8.08C162.194 7.89333 161.56 7.8 160.947 7.8C160.4 7.8 159.96 7.86 159.627 7.98C159.294 8.08667 159.054 8.23333 158.907 8.42C158.76 8.60667 158.687 8.82 158.687 9.06C158.687 9.36667 158.827 9.61333 159.107 9.8C159.4 9.97333 159.78 10.12 160.247 10.24C160.727 10.3467 161.247 10.46 161.807 10.58C162.38 10.7 162.947 10.8533 163.507 11.04C164.08 11.2133 164.6 11.4533 165.067 11.76C165.534 12.0533 165.907 12.4467 166.187 12.94C166.48 13.42 166.627 14.0267 166.627 14.76C166.627 15.5733 166.394 16.3267 165.927 17.02C165.474 17.7 164.787 18.2467 163.867 18.66C162.96 19.0733 161.814 19.28 160.427 19.28ZM177.816 5H181.776V19H177.816V5ZM172.416 19H168.456V5H172.416V19ZM178.096 13.54H172.136V10.26H178.096V13.54Z" fill="url(#paint0_linear_302_4913)"/>
<defs>
<linearGradient id="paint0_linear_302_4913" x1="115.504" y1="11.9988" x2="183.494" y2="11.9988" gradientUnits="userSpaceOnUse">
<stop stop-color="#58A0FF"/>
<stop offset="0.45" stop-color="#5888FF"/>
<stop offset="1" stop-color="#5966FF"/>
</linearGradient>
</defs>
</svg>
