<svg width="64" height="64" viewBox="0 0 64 64" fill="none" xmlns="http://www.w3.org/2000/svg">
<rect width="64" height="64" rx="4" fill="#F8FAFC"/>
<path d="M16.875 12.0625H47.125C47.4896 12.0625 47.8394 12.2074 48.0973 12.4652C48.3551 12.7231 48.5 13.0728 48.5 13.4375V51.9375H15.5V13.4375C15.5 13.0728 15.6449 12.7231 15.9027 12.4652C16.1606 12.2074 16.5103 12.0625 16.875 12.0625Z" fill="#EAE9E4"/>
<path d="M16.875 12.0625H47.125C47.4896 12.0625 47.8394 12.2074 48.0973 12.4652C48.3551 12.7231 48.5 13.0728 48.5 13.4375V18.9375H15.5V13.4375C15.5 13.0728 15.6449 12.7231 15.9027 12.4652C16.1606 12.2074 16.5103 12.0625 16.875 12.0625Z" fill="#CDCCC8"/>
<path d="M16.875 12.0625H27.875V18.9375H15.5V13.4375C15.5 13.0728 15.6449 12.7231 15.9027 12.4652C16.1606 12.2074 16.5103 12.0625 16.875 12.0625Z" fill="#DCDBD6"/>
<path d="M41.625 12.0625H47.125C47.4896 12.0625 47.8394 12.2074 48.0973 12.4652C48.3551 12.7231 48.5 13.0728 48.5 13.4375V16.1875H41.625V12.0625Z" fill="#2C91FF"/>
<path d="M48.5 16.1875H41.625V18.9375H48.5V16.1875Z" fill="#007AF6"/>
<path d="M32 46.4375C38.8345 46.4375 44.375 40.897 44.375 34.0625C44.375 27.228 38.8345 21.6875 32 21.6875C25.1655 21.6875 19.625 27.228 19.625 34.0625C19.625 40.897 25.1655 46.4375 32 46.4375Z" fill="#CDCCC8"/>
<path d="M32 43.6875C37.3158 43.6875 41.625 39.3783 41.625 34.0625C41.625 28.7467 37.3158 24.4375 32 24.4375C26.6842 24.4375 22.375 28.7467 22.375 34.0625C22.375 39.3783 26.6842 43.6875 32 43.6875Z" fill="#92D1F7"/>
<path d="M32 43C36.9361 43 40.9375 38.9986 40.9375 34.0625C40.9375 29.1264 36.9361 25.125 32 25.125C27.0639 25.125 23.0625 29.1264 23.0625 34.0625C23.0625 38.9986 27.0639 43 32 43Z" fill="#A6DEFF"/>
<path d="M41.625 34.0625C41.6258 34.9612 41.5006 35.8558 41.2529 36.7197L38.875 36.125V32L41.2529 31.4053C41.5006 32.2693 41.6258 33.1638 41.625 34.0625Z" fill="#A6DEFF"/>
<path d="M41.625 34.0625C41.6258 34.9612 41.5006 35.8558 41.2529 36.7197L38.875 36.125V32L41.2529 31.4053C41.5006 32.2693 41.6258 33.1638 41.625 34.0625Z" fill="#EAE9E4"/>
<path d="M25.125 18.9375V17.0469C25.125 16.819 25.0344 16.6004 24.8733 16.4392C24.7122 16.278 24.4935 16.1875 24.2656 16.1875H19.1094C18.8815 16.1875 18.6628 16.278 18.5017 16.4392C18.3405 16.6004 18.25 16.819 18.25 17.0469V18.9375H25.125Z" fill="#CDCCC8"/>
<path d="M48.5 49.1875H15.5V51.9375H48.5V49.1875Z" fill="#CDCCC8"/>
<path d="M32 16.875C32.7594 16.875 33.375 16.2594 33.375 15.5C33.375 14.7406 32.7594 14.125 32 14.125C31.2406 14.125 30.625 14.7406 30.625 15.5C30.625 16.2594 31.2406 16.875 32 16.875Z" fill="#EAE9E4"/>
<path d="M37.5 16.875C38.2594 16.875 38.875 16.2594 38.875 15.5C38.875 14.7406 38.2594 14.125 37.5 14.125C36.7406 14.125 36.125 14.7406 36.125 15.5C36.125 16.2594 36.7406 16.875 37.5 16.875Z" fill="#EAE9E4"/>
<path d="M14.8125 13.4375V51.9375C14.8125 52.1199 14.8849 52.2947 15.0139 52.4236C15.1428 52.5526 15.3177 52.625 15.5 52.625H48.5C48.6824 52.625 48.8572 52.5526 48.9861 52.4236C49.1151 52.2947 49.1875 52.1199 49.1875 51.9375V13.4375C49.1869 12.8907 48.9694 12.3664 48.5828 11.9798C48.196 11.5931 47.6718 11.3756 47.125 11.375H16.875C16.3282 11.3756 15.8039 11.5931 15.4173 11.9798C15.0306 12.3664 14.8131 12.8907 14.8125 13.4375ZM24.4375 18.25H18.9375V17.0469C18.9375 17.0013 18.9556 16.9576 18.9879 16.9253C19.0201 16.8931 19.0638 16.875 19.1094 16.875H24.2656C24.3112 16.875 24.3549 16.8931 24.3871 16.9253C24.4194 16.9576 24.4375 17.0013 24.4375 17.0469V18.25ZM47.8125 19.625V48.5H16.1875V19.625H47.8125ZM47.8125 18.25H42.3125V16.875H47.8125V18.25ZM40.9375 16.1875V18.25H28.5625V12.75H40.9375V16.1875ZM16.1875 51.25V49.875H47.8125V51.25H16.1875ZM47.125 12.75C47.3073 12.7502 47.482 12.8227 47.6109 12.9516C47.7398 13.0805 47.8123 13.2552 47.8125 13.4375V15.5H42.3125V12.75H47.125ZM27.1875 12.75V18.25H25.8125V17.0469C25.812 16.6368 25.6489 16.2436 25.3589 15.9536C25.0689 15.6636 24.6757 15.5005 24.2656 15.5H19.1094C18.6993 15.5005 18.3061 15.6636 18.0161 15.9536C17.7261 16.2436 17.563 16.6368 17.5625 17.0469V18.25H16.1875V13.4375C16.1877 13.2552 16.2602 13.0805 16.3891 12.9516C16.518 12.8227 16.6927 12.7502 16.875 12.75H27.1875Z" fill="#080808"/>
<path d="M32 17.5625C32.4079 17.5625 32.8067 17.4415 33.1459 17.2149C33.485 16.9883 33.7494 16.6662 33.9055 16.2893C34.0616 15.9124 34.1025 15.4977 34.0229 15.0976C33.9433 14.6975 33.7469 14.33 33.4584 14.0416C33.17 13.7531 32.8025 13.5567 32.4024 13.4771C32.0023 13.3975 31.5876 13.4384 31.2107 13.5945C30.8338 13.7506 30.5117 14.015 30.2851 14.3541C30.0585 14.6933 29.9375 15.0921 29.9375 15.5C29.9381 16.0468 30.1556 16.5711 30.5422 16.9577C30.929 17.3444 31.4532 17.5619 32 17.5625ZM32 14.8125C32.136 14.8125 32.2689 14.8528 32.382 14.9284C32.495 15.0039 32.5832 15.1113 32.6352 15.2369C32.6872 15.3625 32.7008 15.5008 32.6743 15.6341C32.6478 15.7675 32.5823 15.89 32.4861 15.9861C32.39 16.0823 32.2675 16.1478 32.1341 16.1743C32.0008 16.2008 31.8625 16.1872 31.7369 16.1352C31.6113 16.0831 31.5039 15.995 31.4283 15.882C31.3528 15.7689 31.3125 15.636 31.3125 15.5C31.3127 15.3177 31.3852 15.143 31.5141 15.0141C31.643 14.8852 31.8177 14.8127 32 14.8125Z" fill="#080808"/>
<path d="M37.5 17.5625C37.9079 17.5625 38.3067 17.4415 38.6459 17.2149C38.985 16.9883 39.2494 16.6662 39.4055 16.2893C39.5616 15.9124 39.6025 15.4977 39.5229 15.0976C39.4433 14.6975 39.2469 14.33 38.9584 14.0416C38.67 13.7531 38.3025 13.5567 37.9024 13.4771C37.5023 13.3975 37.0876 13.4384 36.7108 13.5945C36.3338 13.7506 36.0117 14.015 35.7851 14.3541C35.5585 14.6933 35.4375 15.0921 35.4375 15.5C35.4381 16.0468 35.6556 16.5711 36.0422 16.9577C36.429 17.3444 36.9532 17.5619 37.5 17.5625ZM37.5 14.8125C37.636 14.8125 37.7689 14.8528 37.882 14.9284C37.995 15.0039 38.0832 15.1113 38.1352 15.2369C38.1872 15.3625 38.2008 15.5008 38.1743 15.6341C38.1478 15.7675 38.0823 15.89 37.9861 15.9861C37.89 16.0823 37.7675 16.1478 37.6341 16.1743C37.5008 16.2008 37.3625 16.1872 37.2369 16.1352C37.1113 16.0831 37.0039 15.995 36.9283 15.882C36.8528 15.7689 36.8125 15.636 36.8125 15.5C36.8127 15.3177 36.8852 15.143 37.0141 15.0141C37.143 14.8852 37.3177 14.8127 37.5 14.8125Z" fill="#080808"/>
<path d="M32 47.125C39.2027 47.125 45.0625 41.2652 45.0625 34.0625C45.0625 26.8598 39.2027 21 32 21C24.7973 21 18.9375 26.8598 18.9375 34.0625C18.9375 41.2652 24.7973 47.125 32 47.125ZM32 22.375C38.4445 22.375 43.6875 27.618 43.6875 34.0625C43.6875 40.507 38.4445 45.75 32 45.75C25.5555 45.75 20.3125 40.507 20.3125 34.0625C20.3125 27.618 25.5555 22.375 32 22.375Z" fill="#080808"/>
<path d="M32 44.375C34.246 44.3819 36.4318 43.6488 38.2194 42.2891C39.83 41.0648 41.0487 39.3976 41.7264 37.4914C41.8895 37.4676 42.0384 37.3859 42.146 37.2612C42.2536 37.1365 42.3127 36.9772 42.3125 36.8125V31.3125C42.3128 31.1478 42.2538 30.9884 42.1462 30.8637C42.0386 30.739 41.8896 30.6573 41.7266 30.6336C41.0487 28.7274 39.8301 27.0601 38.2195 25.8358C36.9147 24.8495 35.3941 24.1878 33.783 23.9051C32.172 23.6225 30.5168 23.7271 28.9542 24.2104C27.3916 24.6936 25.9664 25.5416 24.7962 26.6843C23.6259 27.8271 22.7443 29.2318 22.2241 30.7825C21.7039 32.3332 21.56 33.9854 21.8042 35.6027C22.0486 37.2199 22.674 38.7559 23.629 40.0838C24.584 41.4116 25.8412 42.4933 27.2967 43.2394C28.7522 43.9856 30.3643 44.3748 32 44.375ZM40.9375 32.193V35.932L39.5625 35.5882V32.5368L40.9375 32.193ZM32 25.125C33.9462 25.1189 35.8403 25.754 37.3894 26.9322C38.7359 27.9556 39.7677 29.3368 40.3671 30.9183L38.7085 31.333C38.5597 31.3702 38.4276 31.456 38.3332 31.5768C38.2388 31.6977 38.1875 31.8466 38.1875 32V36.125C38.1875 36.2783 38.2388 36.4272 38.3331 36.5481C38.4275 36.669 38.5595 36.7547 38.7082 36.792L40.3668 37.2067C39.7675 38.7882 38.7357 40.1694 37.3893 41.1928C35.8402 42.3709 33.9462 43.0061 32 43C29.6296 43 27.3563 42.0584 25.6802 40.3823C24.0041 38.7061 23.0625 36.4329 23.0625 34.0625C23.0625 31.6921 24.0041 29.4189 25.6802 27.7427C27.3563 26.0666 29.6296 25.125 32 25.125Z" fill="#080808"/>
<path d="M25.7008 31.2201C25.8586 31.3114 26.0462 31.3362 26.2224 31.2892C26.3986 31.2421 26.5488 31.127 26.6401 30.9692C26.9214 30.4829 27.2675 30.037 27.6687 29.6438C27.7979 29.5159 27.8711 29.3421 27.8725 29.1604C27.8739 28.9786 27.8032 28.8037 27.6759 28.674C27.5488 28.5442 27.3753 28.47 27.1936 28.4678C27.0119 28.4655 26.8367 28.5353 26.7062 28.6618C26.2159 29.1422 25.7932 29.6871 25.4496 30.2813C25.3586 30.439 25.3338 30.6266 25.3809 30.8026C25.428 30.9787 25.543 31.1289 25.7008 31.2201Z" fill="#080808"/>
<path d="M32 41.625C33.0063 41.6282 34.003 41.429 34.9308 41.0392C35.8586 40.6494 36.6985 40.0771 37.4007 39.3563C37.4644 39.2919 37.5148 39.2156 37.5489 39.1317C37.583 39.0477 37.6003 38.9579 37.5996 38.8674C37.5989 38.7768 37.5804 38.6872 37.5449 38.6039C37.5095 38.5205 37.4581 38.445 37.3934 38.3816C37.3287 38.3181 37.2522 38.2681 37.168 38.2344C37.084 38.2007 36.9941 38.184 36.9035 38.1851C36.8129 38.1862 36.7235 38.2052 36.6403 38.241C36.5571 38.2769 36.4818 38.3288 36.4187 38.3938C35.5584 39.2714 34.4562 39.8731 33.2526 40.1219C32.049 40.3707 30.7986 40.2554 29.6608 39.7908C28.523 39.3261 27.5493 38.5331 26.8639 37.5129C26.1785 36.4927 25.8125 35.2915 25.8125 34.0625C25.8125 33.8563 25.8228 33.6473 25.8431 33.443C25.852 33.3531 25.8432 33.2624 25.8171 33.176C25.7909 33.0896 25.748 33.0092 25.6908 32.9393C25.5752 32.7983 25.4083 32.7089 25.2269 32.6909C25.1371 32.6819 25.0464 32.6908 24.9599 32.7169C24.8735 32.743 24.7931 32.786 24.7232 32.8431C24.5822 32.9587 24.4928 33.1256 24.4748 33.307C24.45 33.5563 24.4375 33.8106 24.4375 34.0625C24.4397 36.0675 25.2372 37.9898 26.655 39.4075C28.0727 40.8253 29.995 41.6227 32 41.625Z" fill="#080808"/>
</svg>
