<svg width="36" height="36" viewBox="0 0 36 36" fill="none" xmlns="http://www.w3.org/2000/svg">
<path d="M25.7517 23.4403L23.6425 25.5325C23.3311 25.8518 22.9184 25.96 22.5165 25.9605C20.7391 25.9072 19.0591 25.0342 17.6797 24.1377C15.4155 22.4905 13.338 20.448 12.0341 17.9797C11.534 16.9447 10.9472 15.6241 11.0033 14.4688C11.0083 14.0342 11.1254 13.6077 11.4314 13.3276L13.5406 11.2195C13.9786 10.8469 14.4022 10.9757 14.6824 11.4097L16.3793 14.6273C16.5579 15.0085 16.4554 15.417 16.189 15.6893L15.4119 16.466C15.3639 16.5317 15.3334 16.6065 15.3326 16.6879C15.6306 17.8414 16.5333 18.9045 17.3308 19.6361C18.1282 20.3678 18.9854 21.359 20.0981 21.5937C20.2356 21.632 20.4041 21.6455 20.5025 21.554L21.4064 20.6347C21.7181 20.3985 22.168 20.2831 22.5007 20.4762H22.5165L25.5772 22.2832C26.0265 22.5648 26.0734 23.1091 25.7517 23.4403Z" fill="#5977FF"/>
<rect x="1" y="1" width="34" height="34" rx="3" stroke="#5977FF" stroke-width="2"/>
</svg>
